# xmcd
#
# Track frame offsets:
#	150
#	12097
#	24763
#	37407
#	50780
#	63019
#	75405
#	88112
#	101654
#	112758
#	124348
#	137847
#	149698
#	164017
#	178642
#
# Disc length: 2577 seconds
#
# Revision: 0
# Processed by: cddbd v1.4b42PL1 Copyright (c) Steve Scherf et al.
# Submitted via: EasyCDDAExtractor 4.5.0.1
#
DISCID=cc0a0f0f
DTITLE=The Supremes - Motown's Early  Best
DYEAR=1900
DGENRE=
TTITLE0=Baby Love
TTITLE1=Love Is Here And Now You're Gone.wav
TTITLE2=Ask Any Girl
TTITLE3=Back In My Arms Again
TTITLE4=Come See About Me
TTITLE5=You Keep Me Hangin' On
TTITLE6=You Can't Hurry Love
TTITLE7=Love Child
TTITLE8=Son of a Preacher
TTITLE9=Where Did Our Love Go
TTITLE10=Love Is Like An Itching In My Heart.wav
TTITLE11=My World Is Empty Without You
TTITLE12=Nothing But Heartaches
TTITLE13=Up The  Ladder
TTITLE14=When The Lovelight Start Shining Through His Eyes
EXTD=
EXTT0=
EXTT1=
EXTT2=
EXTT3=
EXTT4=
EXTT5=
EXTT6=
EXTT7=
EXTT8=
EXTT9=
EXTT10=
EXTT11=
EXTT12=
EXTT13=
EXTT14=
PLAYORDER=
